HIERARCHY
ROOT Hips
{
	OFFSET -3.958830 18.904000 13.208200
	CHANNELS 6 Xposition Yposition Zposition Zrotation Yrotation Xrotation 
	JOINT LHipJoint
	{
		OFFSET 0.000000 0.000000 0.000000
		CHANNELS 3 Zrotation Yrotation Xrotation
		JOINT LeftUpLeg
		{
			OFFSET 1.800000 -1.400000 0.085000
			CHANNELS 3 Zrotation Yrotation Xrotation
			JOINT LeftLeg
			{
				OFFSET 2.215000 -6.000000 0.000000
				CHANNELS 3 Zrotation Yrotation Xrotation
				JOINT LeftFoot
				{
					OFFSET 2.500000 -6.900000 0.000000
					CHANNELS 3 Zrotation Yrotation Xrotation
					JOINT LeftToeBase
					{
						OFFSET 0.200000 -0.500000 1.950000
						CHANNELS 3 Zrotation Yrotation Xrotation
						End Site
						{
							OFFSET 0.000000 0.000000 0.000000
						}
					}
				}
			}
		}
	}
	JOINT RHipJoint
	{
		OFFSET 0.000000 0.000000 0.000000
		CHANNELS 3 Zrotation Yrotation Xrotation
		JOINT RightUpLeg
		{
			OFFSET -1.800000 -1.400000 0.085000
			CHANNELS 3 Zrotation Yrotation Xrotation
			JOINT RightLeg
			{
				OFFSET -2.215000 -6.000000 0.000000
				CHANNELS 3 Zrotation Yrotation Xrotation
				JOINT RightFoot
				{
					OFFSET -2.500000 -6.900000 0.000000
					CHANNELS 3 Zrotation Yrotation Xrotation
					JOINT RightToeBase
					{
						OFFSET -0.200000 -0.500000 1.950000
						CHANNELS 3 Zrotation Yrotation Xrotation
						End Site
						{
							OFFSET 0.000000 0.000000 0.000000
						}
					}
				}
			}
		}
	}
	JOINT LowerBack
	{
		OFFSET 0.000000 0.000000 0.000000
		CHANNELS 3 Zrotation Yrotation Xrotation
		JOINT Spine
		{
			OFFSET -0.087000 1.940000 -0.288900
			CHANNELS 3 Zrotation Yrotation Xrotation
			JOINT Spine1
			{
				OFFSET 0.000000 1.950000 0.060000
				CHANNELS 3 Zrotation Yrotation Xrotation
				JOINT Neck
				{
					OFFSET 0.000000 0.000000 0.000000
					CHANNELS 3 Zrotation Yrotation Xrotation
					JOINT Neck1
					{
						OFFSET 0.000000 1.600000 0.340000
						CHANNELS 3 Zrotation Yrotation Xrotation
						JOINT Head
						{
							OFFSET 0.000000 1.667000 -0.240000
							CHANNELS 3 Zrotation Yrotation Xrotation
							End Site
							{
								OFFSET 0.000000 0.000000 0.000000
							}
						}
					}
				}
				JOINT LeftShoulder
				{
					OFFSET 0.000000 0.000000 0.000000
					CHANNELS 3 Zrotation Yrotation Xrotation
					JOINT LeftArm
					{
						OFFSET 2.700000 1.550000 -0.730000
						CHANNELS 3 Zrotation Yrotation Xrotation
						JOINT LeftForeArm
						{
							OFFSET 5.450000 0.000000 0.000000
							CHANNELS 3 Zrotation Yrotation Xrotation
							JOINT LeftHand
							{
								OFFSET 3.450000 0.000000 0.000000
								CHANNELS 3 Zrotation Yrotation Xrotation
								JOINT LeftHandIndex1
								{
									OFFSET 0.750000 0.000000 0.000000
									CHANNELS 3 Zrotation Yrotation Xrotation
									End Site
									{
										OFFSET 0.000000 0.000000 0.000000
									}
								}
							}
						}
					}
				}
				JOINT RightShoulder
				{
					OFFSET 0.000000 0.000000 0.000000
					CHANNELS 3 Zrotation Yrotation Xrotation
					JOINT RightArm
					{
						OFFSET -2.700000 1.550000 -0.730000
						CHANNELS 3 Zrotation Yrotation Xrotation
						JOINT RightForeArm
						{
							OFFSET -5.450000 0.000000 0.000000
							CHANNELS 3 Zrotation Yrotation Xrotation
							JOINT RightHand
							{
								OFFSET -3.450000 0.000000 0.000000
								CHANNELS 3 Zrotation Yrotation Xrotation
								JOINT RightHandIndex1
								{
									OFFSET -0.750000 0.000000 0.000000
									CHANNELS 3 Zrotation Yrotation Xrotation
									End Site
									{
										OFFSET 0.000000 0.000000 0.000000
									}
								}
							}
						}
					}
				}
			}
		}
	}
}
MOTION
Frames: 10
Frame Time: 0.016667
-0.607690 13.904870 -4.018730 -40.415961 1.641805 24.519940 -16.100093 9.850902 6.641925 14.361036 -14.825366 -51.430364 -53.107430 31.220593 41.641707 2.420387 14.025880 0.202265 0.447860 0.190210 0.563690 18.221685 -6.544877 3.947052 20.085825 13.159651 -30.418479 -60.164660 24.558449 58.664425 -3.294423 -14.846954 -0.142009 -0.077320 0.323080 0.510930 -2.209755 -4.389148 -10.091789 4.305822 3.355879 65.816520 1.879094 5.431713 18.708899 4.045958 6.377759 -10.943481 7.621919 -3.244335 43.485071 -5.872900 4.761840 -3.732140 -9.671832 -23.148594 1.451165 5.809020 -25.789338 -4.714997 15.823943 -7.682044 -2.367405 -4.284611 2.936693 0.224720 0.289570 0.084780 0.136590 -0.046077 20.792836 10.733401 16.943795 -7.729406 -15.418910 8.323041 59.994395 1.771265 1.763869 -1.912189 0.132020 0.028000 -0.091880 -0.038510 
-0.601430 13.922770 -4.037150 -40.117735 2.349660 25.230146 -16.096349 9.788996 6.696525 14.287106 -15.289141 -52.512942 -52.491994 31.667945 42.995098 2.451170 14.172327 0.128209 0.508110 0.263720 0.609280 18.234405 -6.530985 3.940751 20.448049 13.075106 -29.987297 -62.298727 25.217654 58.041424 -3.375353 -15.021371 -0.200068 -0.049290 0.258140 0.531720 -2.224720 -4.348023 -10.119812 4.840772 2.963002 65.604288 1.708587 5.117771 18.411328 4.155570 6.449617 -11.031673 7.838482 -3.061186 43.382620 -5.911230 5.058590 -5.108300 -9.272670 -23.447797 1.592005 5.728453 -25.714824 -4.767995 15.998527 -7.450126 -2.378839 -4.253664 2.977742 0.242460 0.256810 0.130190 0.128960 -0.587700 20.939983 10.603258 16.939922 -6.716925 -15.407997 7.806310 59.662619 1.525789 1.766423 -1.920614 0.172110 -0.014740 -0.122440 -0.045440 
-0.599170 13.912830 -4.061330 -39.388864 2.599184 25.542381 -16.059810 9.823500 6.764616 13.501155 -15.902560 -52.941753 -52.726523 32.485532 44.023099 2.494265 14.319388 0.042709 0.568870 0.375760 0.603370 18.242054 -6.748448 3.757031 17.957442 12.561240 -28.720272 -61.855702 26.277928 61.185611 -3.535418 -15.539103 -0.325386 0.004420 0.198360 0.533180 -2.293971 -4.174989 -10.056799 5.364222 2.709388 65.164936 1.083406 4.541485 18.270521 4.051511 6.222080 -11.226263 7.428435 -2.196391 43.841020 -4.646970 5.175600 -6.911480 -8.450948 -24.058610 1.882362 5.739741 -25.340640 -4.792760 15.650375 -6.780587 -2.292167 -4.216047 3.005725 0.263970 0.212930 0.178200 0.131300 -1.163479 21.449097 10.390867 16.202966 -5.108116 -15.321202 9.821704 59.319493 2.369629 1.765004 -1.929047 0.210500 -0.039990 -0.142670 -0.032810 
-0.561410 13.942590 -4.090490 -40.138181 2.460974 26.024438 -15.969610 9.818965 6.825396 13.153703 -15.663239 -53.060705 -51.742911 32.778324 45.028048 2.520378 14.387922 -0.011836 0.634110 0.441490 0.649600 18.294607 -7.072490 3.599715 15.776116 12.204765 -27.625835 -56.644295 25.176761 64.879044 -3.543166 -15.410705 -0.327115 0.010320 0.132480 0.569160 -2.510422 -3.682301 -9.990672 7.193168 1.831808 65.453653 -0.324143 4.546791 17.617704 3.954829 5.814611 -11.561248 6.542382 -1.641991 44.818807 -3.575970 4.860510 -8.749640 -8.812270 -25.570443 2.225912 7.039176 -24.521427 -5.527292 15.546309 -7.157927 -2.336094 -4.152497 3.046507 0.307660 0.149450 0.248540 0.128210 -0.586016 23.021669 10.243650 14.720669 -4.385279 -16.373831 7.538547 60.427508 1.346530 1.753863 -1.945488 0.267080 -0.078540 -0.169210 -0.024480 
-0.484950 13.997460 -4.090080 -40.893259 0.730769 25.753290 -15.871087 10.019281 6.749229 11.491905 -14.716021 -51.376808 -49.328496 32.878167 46.200168 2.448884 14.280678 -0.105733 0.768280 0.619690 0.748620 18.313949 -7.496537 3.419446 13.068157 12.047531 -25.383340 -50.153573 22.889048 66.999700 -3.415388 -14.609809 -0.186513 0.072730 -0.038750 0.574070 -2.705217 -3.237442 -9.836365 7.954255 2.225282 67.449734 -1.755944 5.278887 16.633864 3.872652 5.268996 -11.840613 5.325445 -0.652906 46.176370 -2.793000 5.233960 -13.606650 -10.129960 -27.606749 2.300008 9.195411 -23.627896 -6.690182 15.133205 -7.272537 -2.307437 -4.030524 3.067790 0.399720 0.026750 0.374980 0.097010 0.738332 25.779139 9.979486 11.670812 -2.433621 -17.638945 5.652912 60.305107 0.464023 1.734057 -1.955193 0.341440 -0.134150 -0.229330 -0.044490 
-0.444620 14.083870 -4.083410 -39.436004 1.750798 25.945711 -15.840559 10.373045 6.754660 9.272104 -15.485983 -50.229486 -46.756076 32.531941 48.010793 2.405327 14.269675 -0.199113 0.837410 0.690560 0.839800 18.260786 -7.908579 3.055374 10.282381 10.711065 -23.645918 -42.780734 18.912643 69.148894 -3.181455 -13.526835 0.002367 0.078560 -0.181930 0.593590 -2.677983 -3.310963 -9.678300 7.674722 2.374874 69.041126 -1.443080 5.060904 15.089880 3.569159 5.257907 -12.512576 5.114756 -0.044772 49.254658 -2.010250 5.755420 -17.511700 -10.772851 -29.947447 2.842477 10.451954 -22.468795 -7.685618 15.463865 -7.639130 -2.412535 -3.930115 3.075629 0.511510 -0.086460 0.492080 0.040950 2.171055 28.476755 9.403486 8.390106 1.520589 -18.510414 0.363506 58.095109 -1.643414 1.770042 -1.859877 0.387590 -0.185000 -0.250720 -0.078120 
-0.384260 14.156350 -4.103070 -38.674951 3.125050 27.216596 -15.763754 10.388677 6.911372 8.412099 -16.450640 -51.819016 -43.833322 32.399234 51.088323 2.403894 14.453570 -0.316333 0.905790 0.767050 0.889240 18.295595 -8.271475 2.773600 8.307600 9.733000 -22.595917 -36.599323 14.610906 68.991368 -2.883515 -12.267590 0.287947 0.101250 -0.307350 0.567980 -2.847545 -2.936439 -9.628825 9.099691 0.720467 70.016610 -2.748814 4.590101 13.084197 3.508969 4.431057 -13.194537 3.344070 0.708994 52.152157 -0.945930 5.621440 -20.441880 -10.833258 -31.391827 3.229306 11.335332 -21.914537 -8.150360 15.323099 -7.974346 -2.366148 -3.803639 3.070417 0.603180 -0.193060 0.571890 0.024790 2.691336 30.468818 8.735174 6.528943 6.535571 -18.219777 -5.812803 53.395661 -3.501727 1.827897 -1.731763 0.411630 -0.214130 -0.290180 -0.104980 
-0.335170 14.238740 -4.129120 -36.793671 3.198304 28.379710 -15.752925 10.650747 6.922905 5.062505 -17.526422 -52.440717 -39.138278 29.963810 52.164235 2.338530 13.947512 -0.191983 0.959670 0.829610 0.943730 18.246637 -8.568530 2.513355 4.768899 9.330988 -22.265826 -29.511729 9.981013 68.899471 -2.582527 -11.029489 0.581837 0.087130 -0.391610 0.559880 -2.811155 -3.024598 -9.515746 8.104833 1.537671 71.257976 -2.488549 4.794233 11.166040 3.318515 3.688684 -14.095525 1.436845 1.526570 54.588261 -0.256690 5.726580 -21.955210 -10.602362 -32.923356 3.304162 11.968108 -21.909396 -8.774469 15.508886 -7.851177 -2.330107 -3.707148 3.096094 0.634790 -0.280730 0.653640 0.042830 3.087623 33.191615 8.443900 4.213247 10.526312 -17.828523 -11.296334 47.796489 -4.680969 1.955455 -1.656518 0.467960 -0.234770 -0.355390 -0.091150 
-0.298450 14.354030 -4.158430 -34.232482 1.783432 29.893509 -15.772461 10.917647 6.896387 0.925841 -18.185717 -52.877194 -34.702716 27.890782 52.885734 2.272920 13.403765 -0.017650 0.959970 0.822900 0.954990 18.179836 -8.712289 2.381895 2.160893 9.172983 -22.664763 -24.820012 7.070581 64.656332 -2.244532 -9.627974 0.967870 0.048850 -0.447160 0.511200 -2.699700 -3.261149 -9.440603 5.187478 4.237855 72.971017 -1.411769 5.527276 8.270518 3.051708 2.607961 -15.358105 -1.444185 2.444572 57.156864 0.220460 5.491610 -22.825060 -9.972538 -33.963592 3.234147 12.481852 -21.997153 -8.849077 14.496402 -7.653641 -2.056612 -3.602643 3.045186 0.685200 -0.367330 0.709390 0.074950 3.560703 36.231472 8.436401 2.059645 14.081491 -16.962340 -15.438459 41.215146 -4.965245 2.123308 -1.559834 0.471650 -0.210170 -0.402290 -0.087670 
-0.263640 14.449360 -4.196420 -31.766446 0.612424 31.648104 -15.802304 11.145925 6.957171 -3.175596 -19.152076 -53.782713 -29.252029 25.239790 54.117811 2.110347 12.752833 0.165443 0.964720 0.821940 0.953810 18.119456 -8.868618 2.187769 0.684332 8.133686 -22.479851 -22.135964 5.399796 57.508107 -1.871419 -8.078250 1.422360 0.041250 -0.484180 0.452930 -2.581845 -3.509571 -9.338510 2.601520 6.710141 73.843939 0.106667 6.228168 6.202025 2.845529 1.070505 -16.315655 -5.274077 3.596399 58.147576 1.081820 4.758390 -23.875550 -8.506085 -34.539941 2.839067 12.592666 -22.708976 -8.642951 13.505299 -7.536064 -1.831814 -3.508846 2.997359 0.732510 -0.437600 0.736340 0.102890 3.225352 39.003207 8.157710 -0.331338 17.189967 -15.832417 -18.456925 33.894870 -4.785600 2.313137 -1.476529 0.451080 -0.174010 -0.435870 -0.089690 
